<svg version="1.1" id="Слой_1" xmlns="http://www.w3.org/2000/svg" xmlns:xlink="http://www.w3.org/1999/xlink" x="0px" y="0px"
	 viewBox="0 0 37.6 37.6" style="enable-background:new 0 0 37.6 37.6;" xml:space="preserve">
<g>
	<path d="M5.9,15.4H1.7c-0.9,0-1.7,0.8-1.7,1.7v18.8c0,0.9,0.8,1.7,1.7,1.7h4.2c0.9,0,1.7-0.8,1.7-1.7V17.1
		C7.6,16.1,6.8,15.4,5.9,15.4L5.9,15.4z M5.9,15.4"/>
	<path d="M15.9,20.5h-4.2c-0.9,0-1.7,0.8-1.7,1.7v13.7c0,0.9,0.8,1.7,1.7,1.7h4.2c0.9,0,1.7-0.8,1.7-1.7V22.2
		C17.6,21.3,16.8,20.5,15.9,20.5L15.9,20.5z M15.9,20.5"/>
	<path d="M25.9,20.5h-4.2c-0.9,0-1.7,0.8-1.7,1.7v13.7c0,0.9,0.8,1.7,1.7,1.7h4.2c0.9,0,1.7-0.8,1.7-1.7V22.2
		C27.6,21.3,26.8,20.5,25.9,20.5L25.9,20.5z M25.9,20.5"/>
	<path d="M35.9,15.4h-4.2c-0.9,0-1.7,0.8-1.7,1.7v18.8c0,0.9,0.8,1.7,1.7,1.7h4.2c0.9,0,1.7-0.8,1.7-1.7V17.1
		C37.6,16.1,36.8,15.4,35.9,15.4L35.9,15.4z M35.9,15.4"/>
	<path d="M19.3,10.3v3.1c0.9-0.1,1.9-0.5,1.9-1.5C21.2,10.8,20.1,10.5,19.3,10.3L19.3,10.3z M19.3,10.3"/>
	<path d="M16.6,6.6c0,0.8,0.6,1.2,1.7,1.5V5.3C17.3,5.3,16.6,5.9,16.6,6.6L16.6,6.6z M16.6,6.6"/>
	<path d="M18.8,0c-5.2,0-9.4,4.2-9.4,9.4c0,5.2,4.2,9.4,9.4,9.4c5.2,0,9.4-4.2,9.4-9.4C28.2,4.2,24,0,18.8,0L18.8,0z M19.3,15v1
		c0,0.3-0.2,0.5-0.5,0.5c-0.3,0-0.5-0.3-0.5-0.5v-1c-2.6-0.1-3.9-1.6-3.9-2.9c0-0.6,0.4-1,1-1c1.7,0,0.4,2.1,3,2.3v-3.2
		c-2.3-0.4-3.7-1.4-3.7-3.2c0-2.1,1.8-3.2,3.7-3.3V2.9c0-0.3,0.2-0.5,0.5-0.5c0.3,0,0.5,0.3,0.5,0.5v0.8C20.5,3.7,23,4.5,23,6
		c0,0.6-0.5,1-1,1c-1,0-1-1.7-2.7-1.7v2.9c2.1,0.4,3.9,1,3.9,3.4C23.2,13.8,21.6,14.8,19.3,15L19.3,15z M19.3,15"/>
</g>
</svg>
