<?xml version="1.0" encoding="iso-8859-1"?>
<!-- Generator: Adobe Illustrator 19.0.0, SVG Export Plug-In . SVG Version: 6.00 Build 0)  -->
<svg version="1.1" id="&#x421;&#x43B;&#x43E;&#x439;_1"
	 xmlns="http://www.w3.org/2000/svg" xmlns:xlink="http://www.w3.org/1999/xlink" x="0px" y="0px" viewBox="0 0 240 147"
	 style="enable-background:new 0 0 240 147;" xml:space="preserve">
<g>
	<g>
		<defs>
			<rect id="SVGID_1_" width="239.76" height="147"/>
		</defs>
		<clipPath id="SVGID_2_">
			<use xlink:href="#SVGID_1_"  style="overflow:visible;"/>
		</clipPath>
		<path style="clip-path:url(#SVGID_2_);" d="M117.105,146.863H13.469C6.027,146.863,0,140.836,0,133.395V13.469
			C0,6.027,6.027,0,13.469,0h174.343c7.442,0,13.469,6.027,13.469,13.469v18.855c0,7.442-6.027,13.469-13.469,13.469
			c-7.437,0-13.468-6.031-13.468-13.469v-5.386H26.938v92.988h90.167c7.438,0,13.469,6.031,13.469,13.469
			C130.574,140.836,124.543,146.863,117.105,146.863L117.105,146.863z M240,133.395c0-7.438-6.027-13.465-13.469-13.465H149.09
			c-7.442,0-13.469,6.027-13.469,13.465c0,7.441,6.027,13.468,13.469,13.468h77.441C233.973,146.863,240,140.836,240,133.395
			L240,133.395z M240,99.664c0-7.437-6.027-13.465-13.469-13.465H149.09c-7.442,0-13.469,6.028-13.469,13.465
			c0,7.441,6.027,13.469,13.469,13.469h77.441C233.973,113.133,240,107.105,240,99.664L240,99.664z M240,65.934
			c0-7.438-6.027-13.465-13.469-13.465H149.09c-7.442,0-13.469,6.027-13.469,13.465c0,7.441,6.027,13.468,13.469,13.468h77.441
			C233.973,79.402,240,73.375,240,65.934L240,65.934z M86.051,67.105c-11.125-2.851-13.883-4.226-13.883-8.46v-0.18
			c0-3.125,2.852-5.61,8.27-5.61c4.417,0,8.835,1.567,13.535,4.321c1.097,0.652,2.195,1.019,3.586,1.019
			c3.675,0,6.617-2.855,6.617-6.539c0-2.761-1.571-4.695-3.137-5.609c-4.051-2.574-8.641-4.289-13.687-5.109V36.09
			c0-3.379-2.747-6.125-6.125-6.125c-3.391,0-6.133,2.746-6.133,6.125v4.805c-10.153,1.875-17,8.902-17,18.859v0.18
			c0,12.785,8.375,16.375,21.332,19.691c10.765,2.758,12.972,4.59,12.972,8.184v0.183c0,3.77-3.5,6.071-9.296,6.071
			c-6.25,0-11.582-2.215-16.465-5.801c-0.922-0.637-2.203-1.274-4.035-1.274c-3.692,0-6.622,2.84-6.622,6.532
			c0,2.203,1.098,4.222,2.661,5.32c4.992,3.578,10.648,5.832,16.453,6.918v5.07c0,3.379,2.742,6.125,6.133,6.125
			c3.375,0,6.125-2.746,6.125-6.125v-4.558c11.425-1.422,19.121-8.317,19.121-19.653v-0.191
			C106.469,75.203,99.105,70.508,86.051,67.105L86.051,67.105z M86.051,67.105"/>
	</g>
</g>
</svg>
