<?xml version="1.0" encoding="iso-8859-1"?>
<!-- Generator: Adobe Illustrator 19.0.0, SVG Export Plug-In . SVG Version: 6.00 Build 0)  -->
<svg version="1.1" id="&#x421;&#x43B;&#x43E;&#x439;_1"
	 xmlns="http://www.w3.org/2000/svg" xmlns:xlink="http://www.w3.org/1999/xlink" x="0px" y="0px" viewBox="0 0 174.96 135"
	 style="enable-background:new 0 0 174.96 135;" xml:space="preserve">
<g>
	<g>
		<defs>
			<rect id="SVGID_1_" x="0" width="174.96" height="135"/>
		</defs>
		<clipPath id="SVGID_2_">
			<use xlink:href="#SVGID_1_"  style="overflow:visible;"/>
		</clipPath>
		<path style="clip-path:url(#SVGID_2_);" d="M111.793,63.246L11.008,93.356c-0.797,0.238-1.621,0.359-2.453,0.359
			c-3.75,0-7.121-2.512-8.196-6.109c-1.351-4.52,1.227-9.297,5.75-10.649l100.786-30.109l-5.247-17.563l45.879-13.707l15.391,51.52
			l-45.875,13.707L111.793,63.246z M122.109,94.785c0.504,1.684,2.079,2.856,3.832,2.856c0.383,0,0.77-0.055,1.149-0.168
			l36.574-10.926c1.024-0.309,1.867-0.992,2.375-1.934c0.508-0.941,0.617-2.019,0.313-3.042l-1.961-6.563l-44.239,13.219
			L122.109,94.785z M142.836,2.856C142.332,1.176,140.758,0,139.008,0c-0.387,0-0.774,0.059-1.153,0.168l-36.57,10.93
			c-1.027,0.305-1.871,0.992-2.379,1.93c-0.504,0.941-0.617,2.023-0.312,3.046l1.586,5.301L144.418,8.16L142.836,2.856z
			 M170.684,126.621h-4.129v-4.398c0-2.211-1.793-4-4-4h-59.192c-2.207,0-4,1.789-4,4v4.398h-4.129c-2.211,0-4,1.789-4,4
			c0,2.207,1.789,4,4,4h75.45c2.211,0,4-1.793,4-4C174.684,128.41,172.895,126.621,170.684,126.621L170.684,126.621z
			 M170.684,126.621"/>
	</g>
</g>
</svg>
