<?xml version="1.0" encoding="utf-8"?>
<!-- Generator: Adobe Illustrator 19.0.0, SVG Export Plug-In . SVG Version: 6.00 Build 0)  -->
<svg version="1.1" id="Слой_1" xmlns="http://www.w3.org/2000/svg" xmlns:xlink="http://www.w3.org/1999/xlink" x="0px" y="0px"
	 viewBox="0 0 148.8 155" style="enable-background:new 0 0 148.8 155;" xml:space="preserve">
<style type="text/css">
	path{fill:#fff;}
</style>
<g>
	<g>
		<defs>
			<rect id="SVGID_1_" width="148.8" height="155"/>
		</defs>
		<clipPath id="SVGID_2_">
			<use xlink:href="#SVGID_1_"  style="overflow:visible;"/>
		</clipPath>
		<path class="st0" d="M147.5,26.3c-0.9-0.9-2.2-1.5-3.5-1.5h-0.1c-5.1,0-9.9-2.1-13.5-5.8c-3.6-3.8-5.5-8.8-5.2-14
			c0.1-1.3-0.4-2.6-1.3-3.5C123,0.5,121.7,0,120.4,0h-92c-1.3,0-2.6,0.5-3.5,1.5c-0.9,1-1.4,2.2-1.3,3.5c0.3,5.2-1.6,10.2-5.2,14
			c-3.6,3.7-8.4,5.8-13.5,5.8H4.8c-1.3,0-2.6,0.5-3.5,1.5c-0.9,1-1.4,2.2-1.3,3.6c1.7,30.6,13.2,87.5,71.9,124
			c0.8,0.5,1.7,0.7,2.5,0.7c0.9,0,1.8-0.2,2.5-0.7c58.7-36.6,70.2-93.4,71.9-124C148.9,28.6,148.4,27.3,147.5,26.3L147.5,26.3z
			 M74.4,144.1C24.4,111.6,12.3,63.1,9.9,34c5.9-1,11.2-3.9,15.4-8.3c4.2-4.4,6.9-10.1,7.7-16.1h82.8c0.8,6,3.4,11.7,7.7,16.1
			c4.2,4.4,9.6,7.3,15.4,8.3C136.5,63.1,124.4,111.6,74.4,144.1L74.4,144.1z M74.4,144.1"/>
	</g>
	<path d="M74.4,21.8c-23.5,0-42.7,19.1-42.7,42.7c0,23.5,19.1,42.7,42.7,42.7c23.5,0,42.7-19.1,42.7-42.7
		C117.1,40.9,97.9,21.8,74.4,21.8L74.4,21.8z M74.4,97.5c-18.2,0-33.1-14.8-33.1-33.1c0-18.2,14.8-33.1,33.1-33.1
		c18.2,0,33.1,14.8,33.1,33.1C107.5,82.7,92.6,97.5,74.4,97.5L74.4,97.5z M74.4,97.5"/>
	<path d="M81.1,64.3l8-8c1.9-1.9,1.9-4.9,0-6.8c-1.9-1.9-4.9-1.9-6.8,0l-7.8,7.8l-7.9-8.2c-1.8-1.9-4.9-2-6.8-0.1
		c-1.9,1.8-2,4.9-0.1,6.8l8,8.3l-8.4,8.4c-1.9,1.9-1.9,4.9,0,6.8c0.9,0.9,2.2,1.4,3.4,1.4c1.2,0,2.5-0.5,3.4-1.4l8.3-8.3l8.3,8.6
		c0.9,1,2.2,1.5,3.5,1.5c1.2,0,2.4-0.4,3.3-1.3c1.9-1.8,2-4.9,0.1-6.8L81.1,64.3z M81.1,64.3"/>
</g>
</svg>
