<?xml version="1.0" encoding="utf-8"?>
<!-- Generator: Adobe Illustrator 19.0.0, SVG Export Plug-In . SVG Version: 6.00 Build 0)  -->
<svg version="1.1" id="Слой_1" xmlns="http://www.w3.org/2000/svg" xmlns:xlink="http://www.w3.org/1999/xlink" x="0px" y="0px"
	 viewBox="0 0 37.6 37.6" style="enable-background:new 0 0 37.6 37.6;" xml:space="preserve">
	 <style type="text/css">
	path{fill:#fff;}
</style>
<g>
	<path d="M35.9,8.6h-8c1.1,1,2,2.1,2.8,3.4h5.2c0.9,0,1.7-0.8,1.7-1.7C37.6,9.4,36.8,8.6,35.9,8.6L35.9,8.6z M35.9,8.6"/>
	<path d="M35.9,12.9h-4.8c0.5,1.1,0.9,2.2,1.1,3.4h3.7c0.9,0,1.7-0.8,1.7-1.7C37.6,13.7,36.8,12.9,35.9,12.9L35.9,12.9z M35.9,12.9"
		/>
	<path d="M35.9,4.3H23.2c-0.7,0-1.4,0.5-1.6,1.1c1.9,0.4,3.6,1.2,5.1,2.3h9.1c0.9,0,1.7-0.8,1.7-1.7C37.6,5.1,36.8,4.3,35.9,4.3
		L35.9,4.3z M35.9,4.3"/>
	<path d="M23.2,3.4h12.7c0.9,0,1.7-0.8,1.7-1.7c0-0.9-0.8-1.7-1.7-1.7H23.2c-0.9,0-1.7,0.8-1.7,1.7C21.5,2.7,22.3,3.4,23.2,3.4
		L23.2,3.4z M23.2,3.4"/>
	<path d="M35.9,17.2h-3.5c0.1,0.5,0.1,1,0.1,1.6c0,0.6-0.1,1.2-0.1,1.9h3.6c0.9,0,1.7-0.8,1.7-1.7C37.6,18,36.8,17.2,35.9,17.2
		L35.9,17.2z M35.9,17.2"/>
	<path d="M35.9,21.5h-3.7c-0.2,1.2-0.7,2.3-1.2,3.4h4.9c0.9,0,1.7-0.8,1.7-1.7C37.6,22.3,36.8,21.5,35.9,21.5L35.9,21.5z M35.9,21.5
		"/>
	<path d="M35.9,25.9h-5.4c-0.8,1.3-1.8,2.4-2.9,3.4h8.3c0.9,0,1.7-0.8,1.7-1.7C37.6,26.6,36.8,25.9,35.9,25.9L35.9,25.9z M35.9,25.9
		"/>
	<path d="M1.7,20.4h3.5c-0.1-0.5-0.1-1-0.1-1.6c0-0.6,0.1-1.2,0.1-1.9H1.7c-0.9,0-1.7,0.8-1.7,1.7C0,19.6,0.8,20.4,1.7,20.4
		L1.7,20.4z M1.7,20.4"/>
	<path d="M1.7,24.7h4.8c-0.5-1.1-0.9-2.2-1.1-3.4H1.7C0.8,21.3,0,22,0,23C0,23.9,0.8,24.7,1.7,24.7L1.7,24.7z M1.7,24.7"/>
	<path d="M1.7,16.1h3.7c0.2-1.2,0.7-2.4,1.2-3.4H1.7c-0.9,0-1.7,0.8-1.7,1.7C0,15.3,0.8,16.1,1.7,16.1L1.7,16.1z M1.7,16.1"/>
	<path d="M1.7,11.7h5.4c0.8-1.3,1.8-2.4,2.9-3.4H1.7C0.8,8.3,0,9.1,0,10C0,11,0.8,11.7,1.7,11.7L1.7,11.7z M1.7,11.7"/>
	<path d="M1.7,29h8c-1.1-1-2-2.1-2.8-3.4H1.7c-0.9,0-1.7,0.8-1.7,1.7C0,28.2,0.8,29,1.7,29L1.7,29z M1.7,29"/>
	<path d="M1.7,33.3h12.7c0.7,0,1.4-0.5,1.6-1.1c-1.9-0.4-3.6-1.2-5.1-2.3H1.7c-0.9,0-1.7,0.8-1.7,1.7S0.8,33.3,1.7,33.3L1.7,33.3z
		 M1.7,33.3"/>
	<path d="M14.4,34.2H1.7c-0.9,0-1.7,0.8-1.7,1.7c0,0.9,0.8,1.7,1.7,1.7h12.7c0.9,0,1.7-0.8,1.7-1.7C16.1,34.9,15.3,34.2,14.4,34.2
		L14.4,34.2z M14.4,34.2"/>
	<path d="M18.8,6.8c-6.6,0-12,5.4-12,12c0,6.6,5.4,12,12,12c6.6,0,12-5.4,12-12C30.8,12.2,25.4,6.8,18.8,6.8L18.8,6.8z M18.8,27.3
		c-4.7,0-8.5-3.8-8.5-8.5c0-4.7,3.8-8.5,8.5-8.5s8.5,3.8,8.5,8.5C27.3,23.5,23.5,27.3,18.8,27.3L18.8,27.3z M18.8,27.3"/>
	<path d="M19.3,17.6v-3c1.7,0,1.7,1.7,2.7,1.7c0.5,0,1-0.4,1-1c0-1.5-2.5-2.3-3.7-2.3v-0.8c0-0.3-0.2-0.5-0.5-0.5
		c-0.3,0-0.5,0.3-0.5,0.5v0.8c-1.9,0.1-3.7,1.2-3.7,3.3c0,1.7,1.4,2.7,3.7,3.2v3.2c-2.6-0.1-1.2-2.3-3-2.3c-0.6,0-1,0.4-1,1
		c0,1.2,1.3,2.8,3.9,2.9v1c0,0.3,0.2,0.5,0.5,0.5c0.3,0,0.5-0.3,0.5-0.5v-1c2.3-0.1,3.9-1.2,3.9-3.3C23.2,18.7,21.4,18.1,19.3,17.6
		L19.3,17.6z M18.4,17.5c-1.2-0.2-1.7-0.7-1.7-1.5c0-0.7,0.7-1.3,1.7-1.3V17.5z M19.3,22.8v-3.1c0.8,0.2,1.9,0.5,1.9,1.6
		C21.2,22.3,20.2,22.7,19.3,22.8L19.3,22.8z M19.3,22.8"/>
</g>
</svg>
