<svg version="1.1" id="&#x421;&#x43B;&#x43E;&#x439;_1"
	 xmlns="http://www.w3.org/2000/svg" xmlns:xlink="http://www.w3.org/1999/xlink" x="0px" y="0px" viewBox="0 0 248 331"
	 style="enable-background:new 0 0 248 331;" xml:space="preserve">
<g>
	<g>
		<defs>
			<rect id="SVGID_1_" width="247.92" height="331"/>
		</defs>
		<clipPath id="SVGID_2_">
			<use xlink:href="#SVGID_1_"  style="overflow:visible;"/>
		</clipPath>
		<path d="M248,91.355c0-3.023-0.535-5.917-1.52-8.597l-21.07-65.461
			C222.094,6.988,212.5,0,201.668,0H46.32C35.488,0,25.898,6.988,22.578,17.297L1.199,83.711C0.32,86.445-0.062,89.273,0.02,92.07
			C0.012,92.309,0,92.543,0,92.781v212.352c0,13.777,11.168,24.941,24.941,24.941h198.106c13.773,0,24.941-11.164,24.941-24.941
			V92.777c0-0.144-0.011-0.285-0.011-0.429C247.988,92.02,248,91.688,248,91.355L248,91.355z M64.492,35.629h119.004l5.32,16.531
			H59.172L64.492,35.629z M195.254,276.488H52.734V133.969h142.52V276.488z M195.254,276.488"/>
	</g>
	<path d="M97.543,241.102c0.316,0.089,0.734,0.187,1.156,0.277l0.348,0.074c6.476,1.809,12.336,3.375,17.015,3.969v12.027
		c0,4.012,3.258,7.262,7.266,7.262h1.75c4.004,0,7.262-3.25,7.262-7.262v-12.293c12.07-2.535,23.535-12.543,23.535-26.644
		c0-17.403-15.461-22.813-27.883-27.164c-11.687-4.09-16.574-6.586-16.574-11.485c0-8.734,9.027-11.043,13.801-11.043
		c9.164,0,11.043,3.715,11.043,9.297v0.438c0,4.011,3.254,7.261,7.261,7.261h1.872c4.011,0,7.261-3.25,7.265-7.253l0.012-12.606
		c0-2.039-0.856-3.98-2.352-5.359c-4.558-4.18-10.465-6.504-17.98-7.051v-8.266c0-4.011-3.258-7.269-7.262-7.269h-1.75
		c-4.008,0-7.266,3.258-7.266,7.269v8.84c-10.96,3.024-21.351,13.027-21.351,26.32c0,15.86,13.98,20.645,26.316,24.864
		c12.789,4.379,18.141,7.226,18.141,13.496c0,9.058-9.41,11.48-14.969,11.48c-5.617,0-12.566-1.605-14.445-4.246
		c-0.824-1.18-1.379-3.465-1.649-6.805c-0.308-3.773-3.453-6.675-7.238-6.675h-1.476c-1.942,0-3.793,0.769-5.161,2.144
		c-1.363,1.375-2.121,3.242-2.105,5.176l0.113,14.293C92.262,237.402,94.426,240.227,97.543,241.102L97.543,241.102z
		 M97.543,241.102"/>
</g>
</svg>
