<svg version="1.1" id="Слой_1" xmlns="http://www.w3.org/2000/svg" xmlns:xlink="http://www.w3.org/1999/xlink" x="0px" y="0px"
	 viewBox="0 0 283.9 383" style="enable-background:new 0 0 283.9 383;" xml:space="preserve">
<style type="text/css">
	path{fill:#000;}
</style>
<g>
	<path d="M51.6,74.6c20.6,0,37.3-16.7,37.3-37.3C88.9,16.7,72.2,0,51.6,0C31,0,14.3,16.7,14.3,37.3C14.3,57.9,31,74.6,51.6,74.6
		L51.6,74.6z M51.6,74.6"/>
	<path d="M251.2,81.8h-13.7c-17.7,0-32.1,14.4-32.1,32.1v13.2l14.9-15.9l-15.3,31.4l-53.2,20.8c-8.2,3.2-12.3,12.4-9.1,20.7
		c2.5,6.3,8.5,10.2,14.9,10.2c1.9,0,3.9-0.4,5.8-1.1l59-23c3.7-1.4,6.8-4.3,8.5-7.9l18.1-37l-6.6,42.6c-0.9,5.6-4.6,9.9-9.5,11.9
		l-5.9,2.3l-21.6,8.4l0,173c0,10.6,8.6,19.2,19.1,19.2c4.4,0,8.4-1.5,11.6-4c-2.5-4.5-4-9.6-4-15.2V249.4h12.8v114.1
		c0,10.6,8.6,19.1,19.1,19.1s19.2-8.6,19.2-19.1l0.2-249.6C283.3,96.2,268.9,81.8,251.2,81.8L251.2,81.8z M251.2,81.8"/>
	<g>
		<defs>
			<rect id="SVGID_1_" width="283.9" height="383"/>
		</defs>
		<clipPath id="SVGID_2_">
			<use xlink:href="#SVGID_1_"  style="overflow:visible;"/>
		</clipPath>
		<path class="st0" d="M244.3,74.6c20.6,0,37.3-16.7,37.3-37.3c0-20.6-16.7-37.3-37.3-37.3C223.7,0,207,16.7,207,37.3
			C207,57.9,223.7,74.6,244.3,74.6L244.3,74.6z M244.3,74.6"/>
		<path class="st0" d="M91,142.7l-14.1-28.9l13.7,14v-13.9c0-17.7-14.4-32.1-32.1-32.1H44.7c-17.7,0-32.1,14.4-32.1,32.1v112.8
			l-12.5,135c-1,10.5,6.8,19.9,17.3,20.8c0.6,0.1,1.2,0.1,1.8,0.1c9.8,0,18.1-7.4,19-17.4L49,249.4h9.1l33.2,119.3
			c2.4,8.5,10.1,14,18.4,14c1.7,0,3.4-0.2,5.2-0.7c10.2-2.8,16.1-13.4,13.3-23.6l-37.6-135v-32.8L69,182.1l-6.1-2.4
			c-5.2-2-8.6-6.6-9.3-11.8l-5.4-40.1l16.9,34.5c1.8,3.6,4.8,6.4,8.5,7.9l59,23c0.1,0,0.2,0,0.3,0.1c-0.9-1.4-1.7-2.9-2.3-4.5
			c-3.9-10.1-1.7-20.9,4.8-28.7L91,142.7z M91,142.7"/>
	</g>
</g>
</svg>
