<?xml version="1.0" encoding="utf-8"?>
<!-- Generator: Adobe Illustrator 19.0.0, SVG Export Plug-In . SVG Version: 6.00 Build 0)  -->
<svg version="1.1" id="Слой_1" xmlns="http://www.w3.org/2000/svg" xmlns:xlink="http://www.w3.org/1999/xlink" x="0px" y="0px"
	 viewBox="0 0 397 287" style="enable-background:new 0 0 397 287;" xml:space="preserve">
<style type="text/css">
</style>
<g>
	<g>
		<defs>
			<rect id="SVGID_1_" width="397" height="287"/>
		</defs>
		<clipPath id="SVGID_2_">
			<use xlink:href="#SVGID_1_"  style="overflow:visible;"/>
		</clipPath>
		<path fill="#003ceb" class="st0" d="M396.5,35.5v120c0,0-25.7,5.1-31,5.7c-5.3,0.7-21.9,6-33.9-5.5c-18.5-17.8-84.4-83.2-84.4-83.2
			s-11.4-11.1-29.6-1.5c-16.7,8.8-41.5,21.7-51.9,26.8c-19.6,10.4-35.8-6.1-35.8-18.7c0-9.8,6.1-16.4,14.8-21.3
			c23.6-14.3,73.4-42.3,94.1-53.3c12.6-6.7,21.7-7.3,39,7.3c21.3,17.9,40.3,34.3,40.3,34.3s6.2,5.2,16.1,3.1
			C358.5,44.1,396.5,35.5,396.5,35.5L396.5,35.5z M134.5,238.9c3.2-8.2,2.1-17.4-4-23.6c-5.5-5.6-13.5-7.1-21.2-5.4
			c2.1-7.6,1-15.7-4.6-21.3c-5.5-5.6-13.5-7.1-21.2-5.4c2.1-7.6,0.9-15.6-4.6-21.3c-8.7-8.9-23.6-8.5-33.4,0.9
			c-9.8,9.4-16,26.4-7.3,36.4c8.7,10,18.7,3.9,26.4,2.2c-2.1,7.6-8.5,14.6-0.7,24.5c7.8,9.9,18.7,3.9,26.4,2.2
			c-2.1,7.5-8.2,15.3-0.7,24.5c7.6,9.2,20.1,4.3,28.3,1.8c-3.2,8.2-10,17-1.2,26.8c8.7,9.9,28.9,5.3,38.7-4
			c9.8-9.4,10.8-24.3,2.1-33.2C151.5,237.8,142.7,236.3,134.5,238.9L134.5,238.9z M314,176.5c-71.1-71.1-37.7-37.6-75.9-76
			c0,0-11.5-11.4-26.7-4.8c-10.6,4.7-24.3,11-34.6,15.9c-11.3,5.9-19.5,7.8-23.3,7.8c-21.9-0.1-39.7-17.7-39.7-39.6
			c0-14.2,7.5-26.5,18.8-33.6c15.8-10.9,52.2-30.3,52.2-30.3s-11.1-14-35.4-14c-24.3,0-75,33.2-75,33.2S60,44.2,39.5,35.9L0,22.2
			v137.3c0,0,11.3,3.3,21.4,7.4c2.3-6.5,6-12.6,11.1-17.5c16.8-16,44.7-16.2,60-0.4c4.6,4.8,7.8,10.5,9.5,16.8
			c6.2,1.9,11.7,5.3,16.2,9.9c4.6,4.8,7.8,10.5,9.5,16.8c6.2,1.9,11.7,5.3,16.2,9.9c5.1,5.2,8.4,11.5,10,18.4
			c6.4,1.9,12.3,5.4,16.9,10.2c9.2,9.4,12.5,22.3,10.5,34.6c0,0,0,0,0.1,0c0.1,0.2,5.7,6.4,9.2,9.9c6.8,6.8,17.8,6.8,24.6,0
			c6.8-6.8,6.8-17.8,0-24.6c-0.2-0.2-24.5-25.6-22.5-27.5c1.9-1.9,32.8,30.1,33.4,30.7c6.8,6.8,17.8,6.8,24.6,0
			c6.8-6.8,6.8-17.8,0-24.6c-0.3-0.3-1.7-1.6-2.2-2.2c0,0-30.6-27.2-28.3-29.6c2.4-2.3,40.4,33.1,40.4,33.1
			c6.8,6.2,17.3,6.1,23.9-0.5c6.4-6.4,6.5-16.5,0.9-23.3c-0.1-0.4-29-30.5-26.7-32.8c2.3-2.3,30.8,27.1,30.9,27.1
			c6.8,6.8,17.8,6.8,24.6,0c6.8-6.8,6.8-17.8,0-24.7C314.2,176.6,314,176.5,314,176.5L314,176.5z M314,176.5"/>
	</g>
</g>
</svg>
