<svg version="1.1" id="Слой_1" xmlns="http://www.w3.org/2000/svg" xmlns:xlink="http://www.w3.org/1999/xlink" x="0px" y="0px"
	 viewBox="0 0 468.2 489.6" style="enable-background:new 0 0 468.2 489.6;" xml:space="preserve">
<g>
	<path d="M238.3,74.3l3.1-3.1V144c0,11.5,9.3,20.8,20.8,20.8c11.5,0,20.8-9.3,20.8-20.8V71.1l3.1,3.1c4.1,4.1,9.4,6.1,14.7,6.1
		s10.7-2,14.7-6.1c8.1-8.1,8.1-21.3,0-29.5L277.1,6.1c-3.9-3.9-9.2-6.1-14.7-6.1s-10.8,2.2-14.7,6.1l-38.7,38.7
		c-8.1,8.1-8.1,21.3,0,29.5C217,82.4,230.2,82.4,238.3,74.3L238.3,74.3z M238.3,74.3"/>
	<path d="M135.6,186.9C60.7,186.9,0,220.7,0,262.4c0,41.7,60.7,75.5,135.6,75.5c13.1,0,25.7-1,37.7-3c-0.1-1.6-0.2-3.3-0.2-5
		c0-39.1,38.6-71.7,94.5-85C253.5,211.7,199.8,186.9,135.6,186.9L135.6,186.9z M135.6,186.9"/>
	<path d="M3.8,322.1C1.3,327.8,0,333.7,0,339.8c0,41.7,60.7,75.5,135.6,75.5c13.1,0,25.7-1,37.7-3c-0.1-1.6-0.2-3.3-0.2-5
		c0-8.1,1.7-16.2,5.1-24l3.4-7.9c-14.3,2.9-29.8,4.4-45.9,4.4C71.6,380,18,355.3,3.8,322.1L3.8,322.1z M3.8,322.1"/>
	<path d="M197,336.7c0,41.7,60.7,75.6,135.6,75.6c74.9,0,135.6-33.8,135.6-75.6c0-41.7-60.7-75.5-135.6-75.5
		C257.7,261.1,197,295,197,336.7L197,336.7z M197,336.7"/>
	<path d="M332.6,454.3c-64,0-117.6-24.7-131.8-57.9c-2.4,5.7-3.8,11.6-3.8,17.7c0,41.7,60.7,75.6,135.6,75.6
		c74.9,0,135.6-33.8,135.6-75.6c0-6.1-1.3-12-3.8-17.7C450.2,429.6,396.6,454.3,332.6,454.3L332.6,454.3z M332.6,454.3"/>
</g>
</svg>
