<?xml version="1.0" encoding="iso-8859-1"?>
<!-- Generator: Adobe Illustrator 19.0.0, SVG Export Plug-In . SVG Version: 6.00 Build 0)  -->
<svg version="1.1" id="&#x421;&#x43B;&#x43E;&#x439;_1"
	 xmlns="http://www.w3.org/2000/svg" xmlns:xlink="http://www.w3.org/1999/xlink" x="0px" y="0px" viewBox="0 0 62.531 45.644"
	 style="enable-background:new 0 0 62.531 45.644;" xml:space="preserve">
<g>
	<path d="M21.133,2.398C21.133,1.074,22.207,0,23.535,0h36.598c1.324,0,2.398,1.074,2.398,2.398c0,1.328-1.074,2.403-2.398,2.403
		H23.535C22.207,4.801,21.133,3.726,21.133,2.398L21.133,2.398z M60.133,40.844H23.535c-1.328,0-2.402,1.074-2.402,2.398
		c0,1.328,1.074,2.402,2.402,2.402h36.598c1.324,0,2.398-1.074,2.398-2.402C62.531,41.918,61.457,40.844,60.133,40.844
		L60.133,40.844z M6.535,4.801h8.399c1.324,0,2.398-1.075,2.398-2.403C17.332,1.074,16.258,0,14.934,0H6.535
		C5.207,0,4.133,1.074,4.133,2.398C4.133,3.726,5.207,4.801,6.535,4.801L6.535,4.801z M14.934,40.844H6.535
		c-1.328,0-2.402,1.074-2.402,2.398c0,1.328,1.074,2.402,2.402,2.402h8.399c1.324,0,2.398-1.074,2.398-2.402
		C17.332,41.918,16.258,40.844,14.934,40.844L14.934,40.844z M23.535,18.515H47.77c1.324,0,2.398-1.074,2.398-2.402
		c0-1.324-1.074-2.398-2.398-2.398H23.535c-1.328,0-2.402,1.074-2.402,2.398C21.133,17.441,22.207,18.515,23.535,18.515
		L23.535,18.515z M23.535,31.734H47.77c1.324,0,2.398-1.074,2.398-2.402c0-1.324-1.074-2.399-2.398-2.399H23.535
		c-1.328,0-2.402,1.075-2.402,2.399C21.133,30.66,22.207,31.734,23.535,31.734L23.535,31.734z M5.793,29.121
		c0.937,0.937,2.457,0.937,3.395,0c0.937-0.938,0.937-2.457,0-3.395l-0.993-0.992h7.551c1.324,0,2.399-1.074,2.399-2.402
		c0-1.324-1.075-2.399-2.399-2.399H8.195l0.993-0.996c0.937-0.937,0.937-2.457,0-3.394c-0.469-0.469-1.083-0.703-1.696-0.703
		c-0.613,0-1.23,0.234-1.699,0.703l-5.09,5.094C0.254,21.086,0,21.695,0,22.332c0,0.637,0.254,1.246,0.703,1.699L5.793,29.121z
		 M5.793,29.121"/>
</g>
</svg>
