<svg version="1.1" id="&#x421;&#x43B;&#x43E;&#x439;_1"
	 xmlns="http://www.w3.org/2000/svg" xmlns:xlink="http://www.w3.org/1999/xlink" x="0px" y="0px" viewBox="0 0 10.723 12"
	 style="enable-background:new 0 0 10.723 12;" xml:space="preserve">
<g>
	<path d="M5.906,3.238c0.106,0.106,0.106,0.278,0,0.383L4.23,5.297C4.125,5.402,3.953,5.402,3.848,5.301
		C3.742,5.191,3.742,5.02,3.844,4.914l1.679-1.676C5.629,3.133,5.801,3.133,5.906,3.238L5.906,3.238z M6.703,8.152
		C6.809,8.258,6.98,8.258,7.086,8.156l1.676-1.679c0.109-0.106,0.109-0.278,0-0.383c-0.102-0.106-0.274-0.106-0.383,0L6.703,7.77
		C6.598,7.875,6.598,8.047,6.703,8.152L6.703,8.152z M10.723,3.293v8.012H2.016v-0.129L1.246,12L0,10.754l2.016-1.887V0h5.535
		L10.723,3.293z M7.699,3.027h1.496l-1.496-1.55V3.027z M9.809,3.715H7.012V0.918H2.934v7.09L4.98,6.094L4.367,5.48L6.09,3.758
		L8.242,5.91L6.523,7.637L5.906,7.02l-2.972,3.175v0.192h6.875V3.715z M9.809,3.715"/>
</g>
</svg>
