<svg version="1.1" id="Слой_1" xmlns="http://www.w3.org/2000/svg" xmlns:xlink="http://www.w3.org/1999/xlink" x="0px" y="0px"
	 viewBox="0 0 640 359" style="enable-background:new 0 0 640 359;" xml:space="preserve">
<g>
	<g>
		<defs>
			<rect id="SVGID_1_" x="0.1" y="0.1" width="639.8" height="358.9"/>
		</defs>
		<clipPath id="SVGID_2_">
			<use xlink:href="#SVGID_1_"  style="overflow:visible;"/>
		</clipPath>
		<path class="st0" d="M237.1,252c-29.5,0-53.4,24-53.4,53.5c0,29.5,23.9,53.4,53.4,53.4c29.5,0,53.4-24,53.4-53.4
			C290.6,275.9,266.7,252,237.1,252L237.1,252z M237.1,332.2c-14.8,0-26.7-12-26.7-26.7c0-14.8,11.9-26.7,26.7-26.7
			c14.8,0,26.7,11.9,26.7,26.7C263.8,320.1,251.9,332.2,237.1,332.2L237.1,332.2z M640,212.4v57c0,14.2-11.5,25.8-25.8,25.8h-27.6
			c-5-34.2-34.4-60.5-70-60.5c-35.5,0-64.9,26.3-69.9,60.5H307.1c-5-34.2-34.4-60.5-69.9-60.5c-35.5,0-64.9,26.3-69.9,60.5h-34.5
			c-14.2,0-25.8-11.5-25.8-25.8v-57H640z M516.8,252c-29.5,0-53.5,24-53.5,53.5c0,29.5,24,53.4,53.5,53.4c29.5,0,53.4-24,53.4-53.4
			C570.2,275.9,546.2,252,516.8,252L516.8,252z M516.8,332.2c-14.8,0-26.7-12-26.7-26.7c0-14.8,11.9-26.7,26.7-26.7
			c14.7,0,26.7,11.9,26.7,26.7C543.5,320.1,531.4,332.2,516.8,332.2L516.8,332.2z M629.8,155L528.6,54.9c-6.4-6.4-15.1-10-24.1-10
			h-51.1V25.8c0-14.3-11.5-25.8-25.8-25.8H132.7c-14.2,0-25.8,11.5-25.8,25.8v4L2.4,41.8L187.7,66L0,84.6l187,26.6L0,127.4l107,20.2
			l0,50.6h533v-18.8C640,170.2,636.3,161.4,629.8,155L629.8,155z M585.7,158.4h-98c-2.2,0-4-1.8-4-4V78.7c0-2.2,1.8-4,4-4h18.6
			c1,0,2.1,0.4,2.8,1.1l79.3,75.7C591.1,153.9,589.3,158.4,585.7,158.4L585.7,158.4z M585.7,158.4"/>
	</g>
</g>
</svg>
