<svg version="1.1" id="Layer_1" xmlns="http://www.w3.org/2000/svg" xmlns:xlink="http://www.w3.org/1999/xlink" x="0px" y="0px"
	 viewBox="-49 141 512 512" style="enable-background:new -49 141 512 512;" xml:space="preserve">
	 <style type="text/css">
	path{fill:#fff;}
</style>
<g transform="translate(0 -1)">
	<path d="M-6.333,636.933h-25.6V449.2h25.6v12.868V628.4V636.933z M458.366,457.605c-14.353-19.985-28.954-21.052-63.633-3.473
		v25.207c0,8.849-4.693,17.22-12.245,21.845l-48.853,29.858l-0.444,0.23c-13.252,7.074-31.846,10.735-60.288,11.861l-51.166,0.026
		c-11.085,0-20.514-7.219-24.038-17.161H130.2c-25.6,0-25.6,12.843-25.6,17.067c0,4.719-3.814,8.533-8.533,8.533
		c-4.719,0-8.533-3.814-8.533-8.533c0-21.376,15.949-34.133,42.667-34.133h67.524c3.482-9.583,12.51-16.64,23.245-16.964h0.043
		c-6.955-5.666-16.043-8.875-25.805-8.875h-33.28c-25.446,0-50.099-8.03-69.436-22.596c-0.845-0.64-3.345-2.526-9.6-2.526
		c-2.364,0-5.043,0.273-7.979,0.785c-1.34,0.247-2.901,0.401-4.471,0.401c-5.973,0-11.802-2.125-16.41-5.973
		c-5.828-4.907-9.165-12.049-9.165-19.635v-1.28c-13.38,5.35-25.421,12.245-34.133,17.792v-17.929H-49V654h59.733v-25.6h110.933
		c17.442,0,35.004-1.323,52.19-3.951l110.618-16.811c4.028-0.043,8.107-0.529,11.742-1.348c10.18-1.434,19.917-6.298,28.177-14.08
		l129.34-100.727l0.205-0.154C464.007,482.983,465.953,468.17,458.366,457.605L458.366,457.605z"/>
	<path d="M172.867,304.133c9.412,0,17.067-7.654,17.067-17.067c0-9.412-7.654-17.067-17.067-17.067
		c-9.412,0-17.067,7.654-17.067,17.067C155.8,296.479,163.454,304.133,172.867,304.133"/>
	<path d="M275.267,372.4c-9.412,0-17.067,7.654-17.067,17.067c0,9.412,7.654,17.067,17.067,17.067
		c9.412,0,17.067-7.654,17.067-17.067C292.333,380.054,284.679,372.4,275.267,372.4"/>
	<path d="M141.234,409.034l153.6-153.6c3.337-3.337,8.73-3.337,12.066,0s3.337,8.73,0,12.066L153.3,421.1
		c-1.664,1.664-3.849,2.5-6.033,2.5s-4.369-0.836-6.033-2.5C137.897,417.763,137.897,412.37,141.234,409.034 M172.867,252.933
		c18.825,0,34.133,15.309,34.133,34.133c0,18.825-15.309,34.133-34.133,34.133s-34.133-15.309-34.133-34.133
		C138.733,268.242,154.042,252.933,172.867,252.933 M275.267,423.6c-18.825,0-34.133-15.309-34.133-34.133
		c0-18.825,15.309-34.133,34.133-34.133c18.825,0,34.133,15.309,34.133,34.133C309.4,408.291,294.091,423.6,275.267,423.6
		 M26.75,312.667h35.183V433.55c0,2.526,1.118,4.915,3.046,6.545c1.937,1.613,4.514,2.321,6.972,1.852
		c13.252-2.338,23.322-0.734,30.805,4.924c16.393,12.348,37.41,19.157,59.17,19.157h33.28c19.337,0,36.958,9.079,47.155,24.286
		c3.516,5.257,4.966,9.643,3.883,11.75c-1.63,3.149-9.907,6.528-24.764,6.963c-4.668,0.137-8.346,4.002-8.277,8.653
		c0.06,4.668,3.866,8.414,8.533,8.414l50.492-0.009c25.361-1.007,42.044-4.062,52.932-9.865l48.427-29.594
		c2.526-1.553,4.079-4.309,4.079-7.287V312.667H411.8c3.533,0,6.69-2.176,7.97-5.47c1.263-3.285,0.375-7.023-2.244-9.387
		L264.293,159.203c-25.685-22.963-64.384-22.972-90.069,0.034L21.025,297.81c-2.62,2.364-3.507,6.101-2.244,9.387
		C20.06,310.491,23.218,312.667,26.75,312.667"/>
</g>
</svg>
