<svg version="1.1" id="Слой_1" xmlns="http://www.w3.org/2000/svg" xmlns:xlink="http://www.w3.org/1999/xlink" x="0px" y="0px"
	 viewBox="0 0 255.8 256" style="enable-background:new 0 0 255.8 256;" xml:space="preserve">
<g>
	<g>
		<defs>
			<rect id="SVGID_1_" y="0" width="255.8" height="256"/>
		</defs>
		<clipPath id="SVGID_2_">
			<use xlink:href="#SVGID_1_"  style="overflow:visible;"/>
		</clipPath>
		<path class="st0" d="M228.2,248.6c0,4-3.2,7.2-7.2,7.2h-52.7c0,0-0.1,0-0.1,0c0,0-0.1,0-0.1,0h-62.6c-0.1,0-0.2,0-0.3,0H42.4
			c-0.1,0-0.2,0-0.3,0h-35c-4,0-7.2-3.2-7.2-7.2c0-4,3.2-7.2,7.2-7.2h27.9V54.8c0-4,3.2-7.2,7.2-7.2c4,0,7.2,3.2,7.2,7.2v186.6H98
			V117.8c0-4,3.2-7.2,7.2-7.2c4,0,7.2,3.2,7.2,7.2v123.6h48.5v-73.3c0-4,3.2-7.2,7.2-7.2c4,0,7.2,3.2,7.2,7.2v73.3H221
			C224.9,241.4,228.2,244.6,228.2,248.6L228.2,248.6z M248.1,133.6c-4,0-7.2,3.2-7.2,7.2v19.7L82.5,2.1C81.1,0.7,79.2,0,77.3,0H7.2
			C3.2,0,0,3.2,0,7.2c0,4,3.2,7.2,7.2,7.2h67.2l156.3,156.3h-19.7c-4,0-7.2,3.2-7.2,7.2c0,4,3.2,7.2,7.2,7.2h37
			c2.3,0,4.4-1.1,5.7-2.8c0.3-0.4,0.5-0.8,0.8-1.2c0.5-0.9,0.7-2,0.7-3.1v-37C255.3,136.9,252.1,133.6,248.1,133.6L248.1,133.6z
			 M248.1,133.6"/>
	</g>
</g>
</svg>
