<?xml version="1.0" encoding="iso-8859-1"?>
<!-- Generator: Adobe Illustrator 19.0.0, SVG Export Plug-In . SVG Version: 6.00 Build 0)  -->
<svg version="1.1" id="&#x421;&#x43B;&#x43E;&#x439;_1"
	 xmlns="http://www.w3.org/2000/svg" xmlns:xlink="http://www.w3.org/1999/xlink" x="0px" y="0px" viewBox="0 0 46.398 46.398"
	 style="enable-background:new 0 0 46.398 46.398;" xml:space="preserve">
<g>
	<path d="M43.457,30.27C43.809,28.734,44,27.168,44,25.602c0-7.278-3.703-13.903-9.91-17.723c-0.379-0.234-0.871-0.117-1.102,0.262
		c-0.23,0.375-0.113,0.867,0.262,1.097c5.73,3.532,9.148,9.645,9.148,16.364c0,1.378-0.16,2.757-0.457,4.117
		c-0.367-0.078-0.75-0.117-1.14-0.117c-3.09,0-5.602,2.511-5.602,5.597c0,3.09,2.512,5.602,5.602,5.602
		c3.086,0,5.597-2.512,5.597-5.602C46.398,33.074,45.207,31.219,43.457,30.27L43.457,30.27z M43.457,30.27"/>
	<path d="M30.535,43.344c-2.332,0.965-4.797,1.457-7.336,1.457c-5.105,0-10.019-2.063-13.613-5.676
		c0.996-1.012,1.613-2.395,1.613-3.926c0-3.086-2.511-5.597-5.597-5.597C2.512,29.602,0,32.113,0,35.199
		c0,3.09,2.512,5.602,5.602,5.602c0.98,0,1.902-0.258,2.703-0.699c3.902,4.007,9.289,6.296,14.894,6.296
		c2.75,0,5.422-0.527,7.949-1.574c0.411-0.168,0.602-0.637,0.434-1.047C31.414,43.371,30.945,43.176,30.535,43.344L30.535,43.344z
		 M30.535,43.344"/>
	<path d="M3.199,24.969c0.02,0.004,0.039,0.004,0.059,0.004c0.414,0,0.765-0.321,0.797-0.743c0.57-8.074,6.07-14.816,13.777-17.054
		c0.68,2.324,2.828,4.023,5.367,4.023c3.09,0,5.602-2.512,5.602-5.597c0-3.09-2.512-5.602-5.602-5.602
		c-3.078,0-5.586,2.5-5.597,5.578C9.137,7.937,3.082,15.297,2.457,24.117C2.426,24.559,2.758,24.941,3.199,24.969L3.199,24.969z
		 M3.199,24.969"/>
</g>
</svg>
