<?xml version="1.0" encoding="iso-8859-1"?>
<!-- Generator: Adobe Illustrator 19.0.0, SVG Export Plug-In . SVG Version: 6.00 Build 0)  -->
<svg version="1.1" id="&#x421;&#x43B;&#x43E;&#x439;_1"
	 xmlns="http://www.w3.org/2000/svg" xmlns:xlink="http://www.w3.org/1999/xlink" x="0px" y="0px" viewBox="0 0 14.41 18.64"
	 style="enable-background:new 0 0 14.41 18.64;" xml:space="preserve">
<g>
	<path d="M13.543,6.683C13.387,2.961,10.613,0,7.207,0c-3.41,0-6.18,2.961-6.34,6.679C0.367,6.812,0,7.261,0,7.8v2.895
		c0,0.644,0.52,1.164,1.164,1.164c0.645,0,1.164-0.52,1.164-1.164v-0.223c0.551,2.563,1.887,5.879,4.879,5.879
		c2.988,0,4.324-3.312,4.875-5.875v0.219c0,0.516,0.332,0.945,0.793,1.098c-0.031,0.589-0.352,3.687-3.379,4.98
		c-0.187-0.117-0.422-0.16-0.648-0.074l-1.332,0.492c-0.387,0.145-0.582,0.574-0.442,0.961c0.145,0.387,0.574,0.586,0.961,0.441
		l1.332-0.492c0.293-0.105,0.477-0.375,0.488-0.664c3.391-1.5,3.743-5.082,3.774-5.648c0.453-0.157,0.781-0.586,0.781-1.094V7.8
		C14.41,7.265,14.039,6.812,13.543,6.683L13.543,6.683z M7.207,2.207c-2.648,0-4.832,2.105-5.172,4.828
		c-0.09-0.102-0.199-0.188-0.316-0.254c0.109-3.242,2.519-5.836,5.488-5.836c2.965,0,5.375,2.594,5.488,5.836
		c-0.121,0.066-0.226,0.152-0.32,0.254C12.035,4.312,9.855,2.207,7.207,2.207L7.207,2.207z M7.207,2.207"/>
</g>
</svg>
